<svg width="164" height="138" viewBox="0 0 164 138" fill="none" xmlns="http://www.w3.org/2000/svg">
<path d="M117.568 121.307C113.088 121.307 109.68 120.123 107.344 117.755C105.008 115.387 103.84 111.915 103.84 107.339V87.0346H108.304V107.195C108.304 110.619 109.088 113.179 110.656 114.875C112.224 116.539 114.528 117.371 117.568 117.371C120.608 117.371 122.912 116.539 124.48 114.875C126.048 113.179 126.832 110.619 126.832 107.195V87.0346H131.248V107.339C131.248 111.915 130.08 115.387 127.744 117.755C125.44 120.123 122.048 121.307 117.568 121.307ZM139.189 120.875V87.0346H160.789V90.6826H143.509V101.867H159.781V105.515H143.509V117.227H160.789V120.875H139.189Z" fill="#589772"/>
<path d="M10.88 118.875V92.2346H0.12V90.6746H23.32V92.2346H12.56V118.875H10.88ZM21.0297 118.875L33.1497 90.6746H34.7497L46.8697 118.875H45.0697L41.5497 110.715L42.6297 111.075H25.1897L26.3097 110.715L22.8297 118.875H21.0297ZM33.9097 92.9546L26.7497 109.755L25.8697 109.515H41.9497L41.1497 109.755L33.9897 92.9546H33.9097Z" fill="#589772"/>
<path d="M90.9932 91.1982H86.8262L53.8428 34.875H26.9746L75.7002 116.415L73.5137 121.209L19.374 30.9043H24V30.875H56.5L72.7197 57.3447L87.7139 30.8086H122.327L90.9932 91.1982ZM76.583 59.5283L75.6172 61.2363L89.5117 84.4141L115.024 35.2461L90.3037 35.2451L76.583 59.5283Z" fill="#589772"/>
</svg>
