<svg width="101" height="85" fill="none" xmlns="http://www.w3.org/2000/svg"><path d="M11.751 18.82h3.17l30.994 51.866-1.326 2.907L11.75 18.821z" fill="#589772"/><path d="M33.602 20.108l9.36 15.438 1.191 1.966 1.131-2.002 8.703-15.401 17.994-.001-17.61 33.936h-.938L33.482 20.11h.12z" stroke="#589772" stroke-width="2.692"/><path d="M72.068 74.444c-2.717 0-4.784-.719-6.201-2.155-1.417-1.436-2.126-3.542-2.126-6.317V53.656h2.708v12.228c0 2.077.475 3.63 1.427 4.658.95 1.01 2.348 1.514 4.192 1.514 1.844 0 3.241-.504 4.192-1.514.951-1.028 1.427-2.581 1.427-4.658V53.656h2.678v12.316c0 2.775-.708 4.88-2.125 6.317-1.397 1.436-3.455 2.155-6.172 2.155zm13.114-.262V53.656h13.101v2.213h-10.48v6.784h9.869v2.212h-9.87v7.104h10.481v2.213h-13.1zM6.6 71.31V55.152H.072v-.947h14.071v.947H7.618V71.31H6.6zm6.155 0l7.351-17.105h.97l7.352 17.105h-1.092l-2.135-4.95.655.219H15.278l.68-.218-2.111 4.949h-1.092zm7.812-15.722l-4.342 10.19-.534-.145h9.753l-.485.145-4.343-10.19h-.049z" fill="#589772"/><path stroke="#589772" stroke-width="2.426" d="M14.557 20.016L33.966 20.016"/></svg>